<?xml version="1.0" encoding="UTF-8" standalone="no"?>
<!-- Created with Inkscape (http://www.inkscape.org/) -->

<svg
   xmlns:dc="http://purl.org/dc/elements/1.1/"
   xmlns:cc="http://creativecommons.org/ns#"
   xmlns:rdf="http://www.w3.org/1999/02/22-rdf-syntax-ns#"
   xmlns:svg="http://www.w3.org/2000/svg"
   xmlns="http://www.w3.org/2000/svg"
   xmlns:sodipodi="http://sodipodi.sourceforge.net/DTD/sodipodi-0.dtd"
   xmlns:inkscape="http://www.inkscape.org/namespaces/inkscape"
   id="svg3842"
   version="1.1"
   inkscape:version="0.48.1 r9760"
   width="24"
   height="24"
   sodipodi:docname="criticalproblem.svg">
  <metadata
     id="metadata3848">
    <rdf:RDF>
      <cc:Work
         rdf:about="">
        <dc:format>image/svg+xml</dc:format>
        <dc:type
           rdf:resource="http://purl.org/dc/dcmitype/StillImage" />
        <dc:title />
      </cc:Work>
    </rdf:RDF>
  </metadata>
  <defs
     id="defs3846" />
  <sodipodi:namedview
     pagecolor="#ffffff"
     bordercolor="#666666"
     borderopacity="1"
     objecttolerance="10"
     gridtolerance="10"
     guidetolerance="10"
     inkscape:pageopacity="0"
     inkscape:pageshadow="2"
     inkscape:window-width="1280"
     inkscape:window-height="776"
     id="namedview3844"
     showgrid="false"
     showguides="true"
     inkscape:guide-bbox="true"
     inkscape:zoom="13.333333"
     inkscape:cx="-1.6875"
     inkscape:cy="12"
     inkscape:window-x="0"
     inkscape:window-y="24"
     inkscape:window-maximized="1"
     inkscape:current-layer="svg3842">
    <sodipodi:guide
       orientation="1,0"
       position="12,15"
       id="guide4383" />
    <sodipodi:guide
       orientation="0,1"
       position="15.225,12"
       id="guide4385" />
  </sodipodi:namedview>
  <path
     style="fill:#ff0000;fill-opacity:1;stroke:none"
     d="M 12 0 C 9.2871354 -1.4542665e-15 6.7911669 0.91948176 4.78125 2.4375 L 12 9.65625 L 19.21875 2.4375 C 17.208833 0.9194818 14.712865 0 12 0 z M 2.4375 4.78125 C 0.9194818 6.7911669 0 9.2871355 0 12 C 0 14.712864 0.91948186 17.208833 2.4375 19.21875 L 9.65625 12 L 2.4375 4.78125 z M 21.5625 4.78125 L 14.34375 12 L 21.5625 19.21875 C 23.080518 17.208833 24 14.712864 24 12 C 24 9.2871355 23.080518 6.7911668 21.5625 4.78125 z M 12 14.34375 L 4.78125 21.5625 C 6.7911668 23.080518 9.2871354 24 12 24 C 14.712865 24 17.208833 23.080518 19.21875 21.5625 L 12 14.34375 z "
     id="path3871" />
</svg>
