<?xml version="1.0" encoding="UTF-8" standalone="no"?>
<!-- Created with Inkscape (http://www.inkscape.org/) -->

<svg
   xmlns:dc="http://purl.org/dc/elements/1.1/"
   xmlns:cc="http://creativecommons.org/ns#"
   xmlns:rdf="http://www.w3.org/1999/02/22-rdf-syntax-ns#"
   xmlns:svg="http://www.w3.org/2000/svg"
   xmlns="http://www.w3.org/2000/svg"
   xmlns:sodipodi="http://sodipodi.sourceforge.net/DTD/sodipodi-0.dtd"
   xmlns:inkscape="http://www.inkscape.org/namespaces/inkscape"
   id="svg2"
   version="1.1"
   inkscape:version="0.48.1 r9760"
   width="24"
   height="24"
   sodipodi:docname="goodidea.svg">
  <metadata
     id="metadata8">
    <rdf:RDF>
      <cc:Work
         rdf:about="">
        <dc:format>image/svg+xml</dc:format>
        <dc:type
           rdf:resource="http://purl.org/dc/dcmitype/StillImage" />
        <dc:title />
      </cc:Work>
    </rdf:RDF>
  </metadata>
  <defs
     id="defs6" />
  <sodipodi:namedview
     pagecolor="#ffffff"
     bordercolor="#666666"
     borderopacity="1"
     objecttolerance="10"
     gridtolerance="10"
     guidetolerance="10"
     inkscape:pageopacity="0"
     inkscape:pageshadow="2"
     inkscape:window-width="1680"
     inkscape:window-height="1026"
     id="namedview4"
     showgrid="false"
     showguides="true"
     inkscape:guide-bbox="true"
     inkscape:zoom="22.510805"
     inkscape:cx="12.228898"
     inkscape:cy="12.127383"
     inkscape:window-x="1280"
     inkscape:window-y="24"
     inkscape:window-maximized="1"
     inkscape:current-layer="svg2">
    <sodipodi:guide
       orientation="1,0"
       position="12,30.729873"
       id="guide3779" />
    <sodipodi:guide
       orientation="0,1"
       position="-7.0373755,12"
       id="guide3781" />
  </sodipodi:namedview>
  <path
     style="fill:#99cc00;fill-opacity:1;stroke:none"
     d="M 12 0 C 5.372583 3.5527137e-15 0 5.3725829 0 12 C 0 18.627417 5.372583 24 12 24 C 18.627417 24 24 18.627417 24 12 C 24 5.3725829 18.627417 -2.3684758e-15 12 0 z M 11.5 3.5625 L 11.5 6.5625 C 10.769758 6.6305769 10.083253 6.831433 9.46875 7.15625 L 7.875 4.625 C 8.9609487 4.0073675 10.188917 3.6433746 11.5 3.5625 z M 12.5 3.5625 C 13.684655 3.6275382 14.804259 3.9317297 15.8125 4.4375 L 14.28125 7.03125 C 13.72883 6.7838943 13.134144 6.61554 12.5 6.5625 L 12.5 3.5625 z M 16.65625 4.9375 C 17.613332 5.5661942 18.424554 6.3921419 19.0625 7.34375 L 16.5 8.84375 C 16.133744 8.3316243 15.673439 7.8910723 15.15625 7.53125 L 16.65625 4.9375 z M 7.03125 5.1875 L 8.65625 7.6875 C 8.235974 8.0168664 7.8698778 8.405059 7.5625 8.84375 L 4.96875 7.34375 C 5.5204207 6.5083335 6.2265123 5.7813702 7.03125 5.1875 z M 12.03125 8.0625 C 14.20214 8.0625 15.96875 9.829106 15.96875 12 C 15.96875 13.500213 15.110738 14.80627 13.875 15.46875 L 13.875 19.5625 L 10.0625 19.5625 L 10.0625 15.40625 C 8.8954733 14.724598 8.09375 13.449031 8.09375 12 C 8.09375 9.829106 9.8603597 8.0625 12.03125 8.0625 z M 19.5625 8.1875 C 20.080489 9.1932583 20.394523 10.316233 20.46875 11.5 L 17.46875 11.5 C 17.403097 10.870239 17.224837 10.266858 16.96875 9.71875 L 19.5625 8.1875 z M 4.46875 8.21875 L 7.0625 9.71875 C 6.8157708 10.265586 6.6496656 10.872463 6.59375 11.5 L 3.59375 11.5 C 3.6618204 10.328646 3.9689192 9.2168007 4.46875 8.21875 z "
     id="path2989" />
</svg>
